<svg xmlns="http://www.w3.org/2000/svg" xmlns:xlink="http://www.w3.org/1999/xlink" id="Warstwa_1" width="173.21" height="200" x="0" y="0" enable-background="new 0 0 173.21 200" version="1.1" viewBox="0 0 173.21 200" xml:space="preserve"><path fill="#FFF" d="M86.603,0L0,50v100l86.603,50l86.603-50V50L86.603,0z M86.603,133.333l28.868-16.667l28.867,16.667	l-57.735,33.333l-57.735-33.333V66.667l57.735-33.333l57.735,33.333L115.47,83.333L86.603,66.667L57.735,83.333v33.333	L86.603,133.333z"/><polygon stroke="#FFF" stroke-miterlimit="10" points="0 50 86.603 100 86.603 0" opacity=".04"/><polygon stroke="#FFF" stroke-miterlimit="10" points="0 150 86.603 200 86.603 100" opacity=".04"/><polygon stroke="#FFF" stroke-miterlimit="10" points="86.603 100 173.205 150 173.205 50" opacity=".08"/><polygon stroke="#FFF" stroke-miterlimit="10" points="86.603 100 0 50 0 150" opacity="0"/><polygon stroke="#FFF" stroke-miterlimit="10" points="173.205 150 86.603 100 86.603 200" opacity=".08"/><polygon stroke="#FFF" stroke-miterlimit="10" points="173.205 50 86.603 0 86.603 100" opacity=".08"/></svg>