<svg xmlns="http://www.w3.org/2000/svg" width="64" height="64" version="1.1" viewBox="0 0 64 64"><title>alarm</title><path d="M32 10c-14.359 0-26 11.641-26 26s11.641 26 26 26 26-11.641 26-26-11.641-26-26-26zM47.556 51.556c-3.981 3.981-9.481 6.444-15.556 6.444-12.15 0-22-9.85-22-22s9.85-22 22-22c12.15 0 22 9.85 22 22v0c0 0.018 0 0.039 0 0.060 0 6.056-2.463 11.537-6.443 15.496l-0.001 0.001z"/><path d="M34 20h-4v16.961l10.751 8.601 2.499-3.123-9.249-7.399v-15.039z"/><path d="M2.871 14.349l19-13 2.259 3.301-19 13-2.259-3.301z"/><path d="M39.871 4.651l2.259-3.301 19 13-2.259 3.301-19-13z"/></svg>